<?xml version="1.0" encoding="UTF-8"?>
<svg width="127px" height="75px" viewBox="0 0 127 75" version="1.1" xmlns="http://www.w3.org/2000/svg" xmlns:xlink="http://www.w3.org/1999/xlink">
    <!-- Generator: Sketch 50.2 (55047) - http://www.bohemiancoding.com/sketch -->
    <title>Group 11</title>
    <desc>Created with Sketch.</desc>
    <defs>
        <polygon id="path-1" points="123.900435 64.3806142 126.294962 64.3806142 126.294962 72.6624621 123.900435 72.6624621"></polygon>
    </defs>
    <g id="Symbols" stroke="none" stroke-width="1" fill="none" fill-rule="evenodd">
        <g id="menu">
            <g id="twitter">
                <g id="Group">
                    <g id="header">
                        <g id="Group-11">
                            <path d="M30.2260336,32.2080814 C28.7900782,30.5609311 27.0702401,29.1617908 25.0899985,28.0245876 C25.2271373,27.9158489 32.0798087,22.7788827 32.0798087,15.9449501 C32.0798087,10.6751406 30.4560212,6.63413199 27.2538034,3.93387689 C24.1535058,1.32361245 20.0937702,0 15.1866555,0 C11.0031215,0 4.73315652,1.24165668 3.45034837,2.14584842 C1.35431243,3.62373055 1.35431243,5.85635567 1.94502317,9.05263065 C2.20435959,10.4539136 3.53572662,11.2654364 5.03037954,11.2654364 C6.6253519,11.2654364 11.4935128,9.39330953 12.9886993,9.00067176 C16.4070308,8.10344358 19.4545006,9.33010181 20.9822376,10.6312166 C22.4107224,11.84984 23.1044206,13.5875165 23.1044206,15.9449501 C23.1044206,18.6950214 21.349364,20.4359119 19.3387064,21.940577 C17.2085191,23.534697 13.4454729,24.4378175 11.5431389,24.4378175 C9.80035542,24.4378175 8.34198826,26.3469048 8.34198826,28.3979416 C8.34198826,32.0414916 10.3371711,33.2135126 11.7773954,33.2135126 C16.1893163,33.2135126 19.25066,34.7331761 20.5329346,35.5222013 C22.7116807,36.7076138 24.7810359,39.4228673 24.6556366,42.2516805 C24.6556366,45.9857567 22.5217141,48.0089393 21.5708139,48.7727885 C19.6610092,50.6904464 16.0628498,51.1339717 14.1786586,51.1339717 C10.9999198,51.1339717 6.34680537,48.5654886 3.40178949,48.5654886 C2.4668977,48.5654886 0,49.0266907 0,52.0579828 C0,55.0887393 1.25986274,57.5838371 2.55494401,58.2014515 C3.53252493,58.6680102 10.3697216,59.8314607 14.2565663,59.8314607 C21.2063555,59.8314607 25.7148605,57.1012087 27.7815477,55.3646035 C31.4133248,52.3129563 33.7078652,47.9451959 33.7078652,42.2516805 C33.7078652,38.2395974 32.5365824,34.8606629 30.2260336,32.2080814" id="Fill-1" fill="#FFFFFF"></path>
                            <path d="M48.2870617,31.0738139 C50.0359871,29.0335085 53.0068456,27.9996966 57.117816,27.9996966 C59.1558066,27.9996966 61.5797558,28.0987926 63.190339,28.331802 C63.2134858,29.3281181 63.4977063,35.3156565 63.3927385,37.2397251 C63.2603176,39.6705221 62.9965523,44.6387113 61.382201,47.6233744 C60.1462722,49.9074023 58.1486539,51.781655 54.3908059,51.781655 C51.6637958,51.781655 48.9254814,50.8094433 47.5646678,48.5773739 C46.4886131,46.8107876 45.5374431,44.5444362 45.5374431,40.3304476 C45.5374431,36.3173292 46.4622365,33.2030378 48.2870617,31.0738139 M70.7431774,1.16504706 C70.4185846,0.820086002 69.4910997,0 67.3669817,0 C65.1987233,0 64.5856036,0.684565585 64.1027516,1.16504706 C63.6780357,1.58767793 63.1709603,2.4661502 63.1709603,3.08911559 L63.1709603,20.1802221 C62.5088556,20.1379055 59.6316608,19.949891 57.117816,19.949891 C50.3578884,19.949891 45.2645268,21.7186199 41.9798415,25.2073332 C38.7279922,28.6612291 37.0786517,33.7494047 37.0786517,40.3304476 C37.0786517,45.3098855 38.0438173,59.8314607 54.3170593,59.8314607 C59.3404423,59.8314607 62.4087325,57.5120796 63.5138552,56.7669852 C63.5138552,56.7669852 64.3869722,59.3906176 67.6167513,59.3906176 C69.8372244,59.3906176 71.6292135,57.8811451 71.6292135,56.5591515 L71.6292135,3.08911559 C71.6292135,2.36598293 71.0413937,1.48215413 70.7431774,1.16504706" id="Fill-3" fill="#FFFFFF"></path>
                            <path d="M122.753963,24.1810899 L122.753423,24.180552 C120.294935,21.5555228 116.733362,20.2247191 112.166828,20.2247191 C107.624555,20.2247191 103.659703,22.2472826 101.209841,24.9390133 C99.7396001,23.2106898 95.7526437,20.2247191 90.388718,20.2247191 C87.3619738,20.2247191 84.0877633,21.3005507 82.164104,22.5974658 C81.4260183,21.6700989 80.7181246,20.5921156 78.3313422,20.5921156 C75.8491316,20.5921156 74.1573034,21.9557322 74.1573034,23.7604398 L74.1573034,56.5846008 C74.1573034,58.0299806 75.7310594,59.8314607 78.4774497,59.8314607 C81.3079462,59.8314607 82.702707,57.7346648 82.702707,56.634627 L82.702707,34.8721668 C82.702707,33.4370074 83.5696477,31.9141677 84.1718695,31.3020195 C85.974761,29.4698782 88.1652957,28.3079801 90.388718,28.3079801 C94.4829638,28.3079801 96.008197,30.7372079 96.008197,34.7984723 L96.008197,56.5168234 C96.008197,57.6937832 97.2293541,59.8314607 100.280899,59.8314607 C103.480169,59.8314607 104.55414,57.5593043 104.55414,56.5168234 L104.55414,34.7984723 C104.55414,33.1680495 105.700895,31.5634466 106.440059,30.8727627 C107.902213,29.5069944 109.882482,28.3079801 112.654751,28.3079801 C115.509509,28.3079801 117.860169,30.3181715 117.860169,34.7984723 L117.860169,56.5055272 C117.860169,57.6432191 119.300757,59.8314607 122.136645,59.8314607 C125.062569,59.8314607 126.404494,57.6598945 126.404494,56.6066554 L126.404494,34.7984723 C126.404494,30.3418398 125.176328,26.7695408 122.753963,24.1810899" id="Fill-5" fill="#FFFFFF"></path>
                            <path d="M6.65925707,72.3938468 C6.61809909,72.4318236 6.57694111,72.4581963 6.53578313,72.4719101 L6.27893649,72.4719101 C6.24455134,72.4581963 6.20704027,72.4302412 6.16588229,72.3885723 C6.12472431,72.3469034 6.09711199,72.3094541 6.08356633,72.2741146 L6.08356633,69.2048563 C6.08356633,68.8514618 5.99968741,68.5650539 5.83192956,68.3466877 C5.66365073,68.1283215 5.39534238,68.0191384 5.02544154,68.0191384 C4.87435528,68.0191384 4.7201431,68.0502582 4.56280499,68.1130253 C4.4049459,68.175265 4.26271643,68.2601851 4.13611656,68.3672584 C4.0095167,68.4748592 3.90479829,68.6003934 3.82300332,68.7422787 C3.74068736,68.8846914 3.69952937,69.0387081 3.69952937,69.2048563 L3.69952937,72.2741146 C3.68546272,72.3094541 3.65837139,72.3469034 3.61721341,72.3885723 C3.57657642,72.4302412 3.53854436,72.4581963 3.50415921,72.4719101 L3.23689283,72.4719101 C3.20250768,72.4581963 3.16499661,72.4302412 3.12383863,72.3885723 C3.08320164,72.3469034 3.05558932,72.3094541 3.04204366,72.2741146 L3.04204366,69.2048563 C3.04204366,68.865703 2.95816474,68.5824599 2.7898859,68.3572368 C2.62212806,68.1320137 2.35694563,68.0191384 1.99329663,68.0191384 C1.83595853,68.0191384 1.67809944,68.0502582 1.52076134,68.1130253 C1.36290225,68.175265 1.22119376,68.2601851 1.09459389,68.3672584 C0.967473039,68.4748592 0.86327562,68.6019757 0.780959658,68.7475532 C0.698643697,68.8926032 0.657485716,69.0487298 0.657485716,69.2159329 L0.657485716,72.2741146 C0.643940052,72.3094541 0.616327736,72.3469034 0.575690742,72.3885723 C0.534532761,72.4302412 0.496500703,72.4581963 0.462115555,72.4719101 L0.205268916,72.4719101 C0.164631923,72.4581963 0.123473942,72.4318236 0.0823159613,72.3938468 C0.0411579807,72.3558701 0.0135456645,72.316311 0,72.2741146 L0,67.6652164 C0.0203184968,67.6029767 0.0614764774,67.547594 0.123473942,67.4990682 L0.205268916,67.4674209 L0.421478561,67.4674209 L0.503794523,67.4990682 L0.616327736,67.6235474 L0.637167219,68.0191384 C0.815344807,67.8176507 1.02061372,67.6673262 1.25401594,67.5665824 C1.48637619,67.4658385 1.73332407,67.4157303 1.99329663,67.4157303 C2.29494816,67.4157303 2.58097008,67.4901014 2.85188337,67.6393711 C3.12227567,67.7886407 3.33640137,67.9911833 3.49373947,68.2480537 C3.66514423,67.9911833 3.88604276,67.7886407 4.15695605,67.6393711 C4.42734835,67.4901014 4.71701718,67.4157303 5.02544154,67.4157303 C5.58654464,67.4157303 6.01323307,67.5734393 6.30446486,67.8888571 C6.59569665,68.2048024 6.74157303,68.6436446 6.74157303,69.2048563 L6.74157303,72.2741146 C6.72750638,72.316311 6.70041505,72.3558701 6.65925707,72.3938468" id="Fill-7" fill="#FFFFFF"></path>
                            <path d="M11.0370592,65.2740213 C10.958735,65.3794481 10.8572697,65.5086097 10.7326631,65.6604021 C10.6074631,65.8132986 10.4733627,65.9761305 10.329175,66.1505538 C10.184394,66.3249772 10.0437666,66.4916729 9.90729269,66.651193 C9.7708188,66.8112651 9.65214584,66.9525701 9.55068047,67.076212 C9.4492151,67.1993019 9.37860469,67.2832017 9.34003598,67.3268075 L9.36317721,67.3047286 C9.30858765,67.3626858 9.24628435,67.4101554 9.17567394,67.4465856 L8.94188823,67.4465856 C8.87958493,67.4465856 8.82499537,67.4261626 8.77811956,67.3864206 C8.73124374,67.3466786 8.70810251,67.297553 8.70810251,67.2395959 C8.70810251,67.217517 8.74489113,67.1540401 8.81906172,67.0491653 C8.89323232,66.9437385 8.98461049,66.812921 9.09438297,66.6572647 C9.20296872,66.5010565 9.32638859,66.3343607 9.46286249,66.1560736 C9.59933638,65.9783384 9.72750317,65.8077788 9.84914294,65.6443949 C9.96959599,65.481011 10.076995,65.3358422 10.1707466,65.2088885 C10.2644983,65.0819348 10.3268016,64.9930672 10.3582499,64.9417338 L10.498284,64.8876404 L10.9201663,64.8876404 C10.9824696,64.8876404 11.0370592,64.9058555 11.083935,64.9417338 C11.1308108,64.9787159 11.153952,65.0256336 11.153952,65.0835907 C11.153952,65.1051177 11.11479,65.1691465 11.0370592,65.2740213 M10.6679863,70.5437041 C10.5237987,70.526041 10.3813911,70.5348725 10.241357,70.5713027 C10.1784604,70.585654 10.1025097,70.5911737 10.0129116,70.5873099 C9.92331354,70.5839981 9.83905574,70.585654 9.76132496,70.5928297 C9.58153544,70.6071809 9.41005302,70.6364355 9.24628435,70.6800413 C9.08251568,70.7236472 8.93417449,70.787124 8.80126078,70.8704719 C8.66834708,70.9538198 8.56332151,71.0609025 8.48559073,71.19172 C8.40726658,71.3225375 8.36810451,71.4859214 8.36810451,71.6813197 C8.36810451,71.8126892 8.3918391,71.937435 8.43871491,72.0572131 C8.48559073,72.1769911 8.55204758,72.2824179 8.63749211,72.3729414 C8.72353,72.4634649 8.82499537,72.5379812 8.94188823,72.5964903 C9.05878109,72.6544475 9.19169479,72.68315 9.34003598,72.68315 C9.66757333,72.68315 9.94052112,72.622985 10.1594727,72.5037589 C10.3772376,72.3839809 10.5510935,72.2261167 10.6798536,72.0301664 C10.8086138,71.8342161 10.9005853,71.614531 10.9551749,71.371663 C11.0097644,71.1282431 11.0370592,70.8793035 11.0370592,70.625396 L11.0958023,70.5166574 C10.9551749,70.5525357 10.8127673,70.5619192 10.6679863,70.5437041 M11.7040012,73.167782 C11.6571254,73.207524 11.6102495,73.2351227 11.5633737,73.249474 L11.3177207,73.249474 L11.2239691,73.2058681 C11.2008279,73.1843412 11.1770933,73.1606064 11.153952,73.1352156 C11.1308108,73.1098249 11.1112298,73.0794664 11.0958023,73.0424842 L11.083935,72.5087267 C10.8732905,72.7703617 10.6193304,72.9701758 10.322648,73.107617 C10.026559,73.2456102 9.70258185,73.3146067 9.35130991,73.3146067 C9.09438297,73.3146067 8.8582238,73.2748647 8.64342576,73.1953807 C8.42862771,73.1153446 8.24171781,73.0043981 8.08150933,72.8630931 C7.92189421,72.7212362 7.79847434,72.5490207 7.71302982,72.3458948 C7.62699193,72.1422169 7.58426966,71.9214278 7.58426966,71.6813197 C7.58426966,71.3838064 7.63885922,71.1370747 7.74803834,70.9416764 C7.85721745,70.7451741 8.00377855,70.5839981 8.18712826,70.4570444 C8.3698846,70.3295387 8.58112246,70.2334955 8.81906172,70.1683627 C9.05700099,70.102678 9.30502746,70.0574162 9.56254777,70.0320255 C9.81947471,70.0066347 10.076995,69.9922834 10.3345153,69.9884196 C10.5920356,69.9851078 10.8341284,69.9828999 11.0602004,69.9828999 L11.0602004,69.5473935 C11.0602004,69.1703962 10.9528014,68.9164887 10.7385967,68.7851193 C10.5237987,68.6548537 10.2294898,68.5897209 9.85448323,68.5897209 C9.66757333,68.5897209 9.47828997,68.6167676 9.28722652,68.6708609 C9.09616307,68.7255062 8.9205271,68.7873271 8.76031861,68.8563237 C8.60070349,68.9253203 8.4642296,68.9871412 8.35089693,69.0412346 C8.23756426,69.0958799 8.16932731,69.1234785 8.14618609,69.1234785 C8.03641361,69.1234785 7.97233021,69.0743529 7.95274918,68.9761018 C7.93316814,68.8778507 7.9236743,68.7928469 7.9236743,68.7199865 L7.9236743,68.5566026 L7.99369135,68.426337 C8.2672325,68.3319497 8.50101821,68.2535696 8.69623522,68.1923006 C8.89085886,68.1304797 9.09438297,68.0758344 9.30502746,68.0289167 C9.51567195,67.9814471 9.69486811,67.9577123 9.8432093,67.9577123 C10.1553192,67.9577123 10.4318271,67.9814471 10.67392,68.0289167 C10.9160128,68.0758344 11.1207236,68.1597343 11.2886458,68.2789603 C11.4565681,68.3987384 11.5829548,68.5621223 11.6689927,68.7691121 C11.7544372,68.9761018 11.7977528,69.2355289 11.7977528,69.5473935 L11.7977528,73.0424842 C11.781732,73.0860901 11.750877,73.12804 11.7040012,73.167782" id="Fill-9" fill="#FFFFFF"></path>
                            <path d="M15.0082925,71.7704268 C14.9018348,71.937496 14.7595177,72.0723967 14.5830221,72.1746099 C14.4059661,72.2773419 14.2070583,72.3525749 13.9862987,72.400309 C13.7649788,72.4480431 13.5442192,72.4719101 13.3228992,72.4719101 C13.0870114,72.4719101 12.8438396,72.4511562 12.5933839,72.4101671 C12.3429282,72.3691781 12.1070404,72.3079539 11.8862808,72.2259759 L11.7977528,72.1035276 L11.7977528,71.7450032 C11.7977528,71.6905241 11.820165,71.6443466 11.8638686,71.6069895 C11.9081326,71.5691135 11.9596806,71.550435 12.0190727,71.550435 C12.0700604,71.550435 12.1400983,71.567557 12.2291866,71.601801 C12.3171543,71.636045 12.4202501,71.6734021 12.5384742,71.7143911 C12.6561379,71.7553802 12.7833269,71.7927373 12.9194806,71.8264624 C13.0556344,71.8612253 13.1979515,71.8778284 13.3453114,71.8778284 C13.4702591,71.8778284 13.5991289,71.8664138 13.7319209,71.8425467 C13.8641525,71.8186797 13.9862987,71.7776907 14.0966785,71.7190608 C14.2070583,71.6614686 14.2972672,71.5851978 14.3673052,71.4892108 C14.4373431,71.3932238 14.4720819,71.2780394 14.4720819,71.1410634 C14.4720819,70.957391 14.4059661,70.8074437 14.2731742,70.6907028 C14.1409425,70.5749996 13.9767735,70.470711 13.7817879,70.3783559 C13.5862419,70.2870386 13.3727663,70.1983155 13.1408006,70.1127054 C12.9082746,70.0276143 12.6947989,69.9217692 12.4992529,69.7951701 C12.3042673,69.6690899 12.1400983,69.5118788 12.0078667,69.3245744 C11.8750747,69.13727 11.8089589,68.9001562 11.8089589,68.6132329 C11.8089589,68.3947977 11.8549038,68.2111253 11.9467936,68.0606592 C12.0392437,67.9107119 12.1625105,67.7877448 12.3171543,67.6922767 C12.4717981,67.5968085 12.648854,67.5267639 12.8477618,67.482143 C13.0466696,67.4380408 13.2489392,67.4157303 13.4556912,67.4157303 C13.9341905,67.4157303 14.4059661,67.4774733 14.8698975,67.5999216 L14.9365736,67.6818997 C14.9589858,67.7093987 14.9769155,67.7400107 14.9920437,67.7742547 L14.9920437,68.0606592 C14.9920437,68.1016482 14.9752346,68.1441938 14.9421767,68.1888148 C14.9091188,68.2334358 14.8665357,68.2552274 14.8149877,68.2552274 C14.7046079,68.2552274 14.5936678,68.2432939 14.483288,68.218908 C14.3729082,68.195041 14.2608475,68.1680608 14.1459852,68.1374488 C14.0322436,68.1063178 13.9179417,68.0777812 13.8036397,68.0502822 C13.6893378,68.0233021 13.5733549,68.0092932 13.4556912,68.0092932 C13.352035,68.0092932 13.2438964,68.0181136 13.1295945,68.0352356 C13.0152926,68.0523576 12.9121967,68.0845262 12.8203069,68.1322603 C12.7278568,68.1799944 12.6522158,68.2412185 12.5933839,68.3164515 C12.5345521,68.3916846 12.504856,68.4907847 12.504856,68.6132329 C12.504856,68.8041692 12.5715321,68.9598238 12.704324,69.079159 C12.8365557,69.1984942 13.0007247,69.3043393 13.1957103,69.3961755 C13.3912563,69.4885306 13.604732,69.5767348 13.8366976,69.6623448 C14.0692236,69.7479549 14.2826993,69.8538 14.477685,69.9798802 C14.6732309,70.1059604 14.8368396,70.2631715 14.9696315,70.4504759 C15.1024235,70.6377803 15.1685393,70.8748941 15.1685393,71.1618174 C15.1685393,71.4004877 15.1147502,71.6038764 15.0082925,71.7704268" id="Fill-11" fill="#FFFFFF"></path>
                            <path d="M21.0696146,68.0340719 C20.7115104,68.0761947 20.3931956,68.1615205 20.1141466,68.2895091 C19.8356211,68.4174977 19.6115442,68.6178511 19.4434866,68.8916495 C19.2743818,69.1649079 19.1900912,69.567775 19.1900912,70.1002507 C19.1900912,70.3346265 19.2089388,70.5673821 19.2471575,70.7979776 C19.2848527,71.0291132 19.353437,71.2370271 19.4534339,71.4211795 C19.5534308,71.6058719 19.6911229,71.7570821 19.8665102,71.8737299 C20.042421,71.9909178 20.2638802,72.0497817 20.5324583,72.0497817 C20.8219782,72.0497817 21.0628085,71.9909178 21.2554728,71.8737299 C21.448137,71.7570821 21.6031061,71.6042518 21.72038,71.4163192 C21.8371303,71.2278465 21.9229915,71.011292 21.9784872,70.7666555 C22.0334594,70.520939 22.0716781,70.2692821 22.0920963,70.0095246 C22.1125145,69.7508473 22.1214148,69.4970302 22.11775,69.2480735 C22.1146087,68.9996568 22.1088497,68.7760818 22.1025672,68.5773484 C22.0952376,68.378615 22.0973317,68.2133639 22.1072791,68.0821351 C22.11775,67.9503663 22.1434036,67.8780014 22.1847636,67.8634204 C21.7994351,67.9341652 21.4277188,67.991409 21.0696146,68.0340719 M22.6648536,74.9362757 C22.6339645,74.9648976 22.6015047,74.9859591 22.5669508,75 L22.2983727,75 C22.2638188,74.9859591 22.2350238,74.9686779 22.2109408,74.9470764 C22.1863342,74.926015 22.1643454,74.9049536 22.1434036,74.8833522 L22.1025672,74.7980264 L22.1025672,71.8791303 C21.9093794,72.1351075 21.6774493,72.3306006 21.4052064,72.4650697 C21.133487,72.6000787 20.8387317,72.6675833 20.522511,72.6675833 C20.1298529,72.6675833 19.8063026,72.6000787 19.5518602,72.4650697 C19.2968942,72.3306006 19.0937591,72.1475283 18.9424548,71.9163928 C18.790627,71.6863373 18.6859182,71.414159 18.6272813,71.1020181 C18.5686443,70.789337 18.5393258,70.4555946 18.5393258,70.1002507 C18.5393258,69.2621144 18.7565967,68.6075904 19.1900912,68.1350587 C19.6241093,67.663067 20.2502681,67.4265311 21.0696146,67.4265311 C21.1523346,67.4265311 21.264373,67.424911 21.4052064,67.4211307 C21.5465633,67.4178905 21.6926321,67.4157303 21.8439364,67.4157303 C21.9957642,67.4157303 22.1402624,67.4195106 22.2779545,67.4265311 C22.4156466,67.4340916 22.5187848,67.4481325 22.587369,67.4691939 C22.6292526,67.4832349 22.6669478,67.5080765 22.7015017,67.5437189 C22.735532,67.5793613 22.752809,67.6220242 22.752809,67.6717075 L22.752809,74.85149 C22.7255847,74.8795719 22.6962662,74.9081938 22.6648536,74.9362757" id="Fill-13" fill="#FFFFFF"></path>
                            <path d="M27.7551788,72.3008443 C27.7334374,72.3250567 27.7122395,72.34769 27.6904981,72.3682179 L27.6051631,72.4098001 L27.369269,72.4098001 C27.3263297,72.3961148 27.2833904,72.369797 27.2404512,72.3318993 C27.1975119,72.2934753 27.1687046,72.2539986 27.1551162,72.2124164 L27.143702,71.693429 C26.9436811,71.9492382 26.6990903,72.1434637 26.4093862,72.2745265 C26.1202256,72.4061156 25.8109542,72.4719101 25.4821155,72.4719101 C25.1462109,72.4719101 24.8603115,72.4203272 24.6244173,72.3161086 C24.3885232,72.2124164 24.1939376,72.067142 24.0401172,71.8802855 C23.8862968,71.693429 23.7737851,71.4718329 23.702582,71.2154973 C23.6308354,70.9596881 23.5955056,70.6828246 23.5955056,70.3849069 C23.5955056,69.4437816 23.6058328,68.5058145 23.6275742,67.5715318 L23.7455213,67.4467854 L23.8313998,67.4157303 L24.1314311,67.4157303 C24.1814363,67.4157303 24.2205708,67.4331001 24.2493782,67.4673133 C24.277642,67.5025791 24.2923175,67.5404768 24.2923175,67.5815326 C24.2852515,68.0526216 24.2792726,68.5194998 24.2760114,68.9832198 C24.2722067,69.4474661 24.2705761,69.9143443 24.2705761,70.3849069 C24.2705761,70.5722898 24.2923175,70.7554618 24.3352567,70.9354757 C24.378196,71.1154896 24.4455943,71.2744493 24.5390823,71.412881 C24.6314833,71.5513127 24.7548657,71.6618476 24.9086861,71.7450119 C25.061963,71.8287026 25.2532873,71.8697584 25.4821155,71.8697584 C25.7038778,71.8697584 25.9147694,71.8287026 26.1147902,71.7450119 C26.3148111,71.6618476 26.4898294,71.5476282 26.6403886,71.4023539 C26.7904042,71.2576059 26.9083513,71.0875927 26.9942298,70.8938936 C27.0795648,70.7001944 27.1225041,70.4959681 27.1225041,70.2812147 C27.1225041,70.0596186 27.1241347,69.8364435 27.1279394,69.6116893 C27.1317442,69.3869351 27.1333748,69.16376 27.1333748,68.9416376 L27.1333748,67.613114 C27.1551162,67.5441613 27.1937072,67.4883675 27.2513219,67.4467854 L27.3366569,67.4157303 L27.6051631,67.4157303 L27.6904981,67.4467854 C27.7481128,67.4883675 27.7872474,67.5441613 27.8089888,67.613114 L27.8089888,72.2124164 C27.7943133,72.2471559 27.7769202,72.2766319 27.7551788,72.3008443" id="Fill-15" fill="#FFFFFF"></path>
                            <path d="M32.0792256,68.8842226 C32.0234284,68.7176551 31.944781,68.5692492 31.8432833,68.4395237 C31.7417856,68.3097983 31.6158434,68.205499 31.4659882,68.1271448 C31.3156015,68.0487906 31.1391762,68.0088352 30.9367122,68.0088352 C30.4823638,68.0088352 30.1087885,68.1421929 29.8149235,68.4083896 C29.5215898,68.6745863 29.3573867,69.0295151 29.3223142,69.4731762 L29.647532,69.4731762 C30.073716,69.4731762 30.4977745,69.4695439 30.9207701,69.4627982 C31.3437658,69.4560525 31.7646359,69.4352964 32.1839117,69.4010489 C32.1695639,69.2235844 32.1350228,69.051309 32.0792256,68.8842226 M32.7971491,69.902827 C32.7657964,69.9370745 32.736038,69.9676897 32.7078737,69.9951915 C32.141931,70.0154287 31.5775825,70.0346281 31.0153596,70.0512329 C30.4526054,70.0683567 29.8882569,70.077178 29.3223142,70.077178 C29.3292224,70.3293643 29.3674833,70.5644269 29.4376283,70.7828845 C29.5077733,71.0013422 29.6071454,71.1922981 29.736276,71.3562711 C29.8654066,71.5197252 30.0312039,71.647894 30.2341993,71.7402585 C30.4371947,71.832623 30.6816394,71.8782864 30.9680649,71.8782864 C31.1285482,71.8782864 31.2932827,71.8544169 31.4606742,71.8066779 C31.6285971,71.7589389 31.7837663,71.7075677 31.9272447,71.653083 C32.0701918,71.5980794 32.1924141,71.547227 32.2939118,71.499488 C32.3954095,71.451749 32.4565207,71.4278796 32.4777768,71.4278796 C32.5755547,71.4278796 32.632946,71.4719862 32.6504823,71.5607184 C32.6674872,71.6494507 32.676521,71.7278048 32.676521,71.7962999 L32.676521,71.9498948 L32.6138156,72.0624965 C32.3831873,72.1994866 32.1174865,72.3017103 31.8172446,72.3696864 C31.5164713,72.4376626 31.2337657,72.4719101 30.9680649,72.4719101 C30.5280644,72.4719101 30.1592717,72.4054907 29.8622182,72.2721329 C29.5651647,72.1387751 29.3276282,71.9535271 29.1496087,71.7143134 C28.9710577,71.4756185 28.8435214,71.1922981 28.7669995,70.864871 C28.6899463,70.537444 28.6516854,70.1788828 28.6516854,69.7902253 C28.6516854,69.4420421 28.7005743,69.1213608 28.7983522,68.8281812 C28.8961301,68.5344828 29.0412028,68.2843721 29.2335701,68.0757735 C29.4254061,67.8676939 29.6645368,67.7057965 29.9514937,67.5895625 C30.2379191,67.4733284 30.5663253,67.4157303 30.9367122,67.4157303 C31.3070991,67.4157303 31.6158434,67.4805931 31.8645394,67.6103185 C32.1121725,67.740044 32.3098539,67.9154328 32.4565207,68.1375228 C32.6031876,68.3590939 32.7078737,68.6133558 32.7711105,68.8997897 C32.8338158,69.1862235 32.8651685,69.4866677 32.8651685,69.8006033 C32.8513521,69.8348508 32.8285018,69.8685795 32.7971491,69.902827" id="Fill-17" fill="#FFFFFF"></path>
                            <path d="M39.6634953,68.8842226 C39.6076981,68.7176551 39.5290507,68.5692492 39.427553,68.4395237 C39.3260553,68.3097983 39.2001131,68.205499 39.0502578,68.1271448 C38.8998712,68.0487906 38.7234459,68.0088352 38.5209819,68.0088352 C38.0666335,68.0088352 37.6930582,68.1421929 37.3991931,68.4083896 C37.1058594,68.6745863 36.9416564,69.0295151 36.9065839,69.4731762 L37.2318016,69.4731762 C37.6579857,69.4731762 38.0820442,69.4695439 38.5050398,69.4627982 C38.9280355,69.4560525 39.3489055,69.4352964 39.7681814,69.4010489 C39.7538335,69.2235844 39.7192924,69.051309 39.6634953,68.8842226 M40.3814188,69.902827 C40.3500661,69.9370745 40.3203076,69.9676897 40.2921433,69.9951915 C39.7262006,70.0154287 39.1618522,70.0346281 38.5996293,70.0512329 C38.036875,70.0683567 37.4725265,70.077178 36.9065839,70.077178 C36.9134921,70.3293643 36.951753,70.5644269 37.021898,70.7828845 C37.092043,71.0013422 37.1914151,71.1922981 37.3205457,71.3562711 C37.4496763,71.5197252 37.6154736,71.647894 37.818469,71.7402585 C38.0214644,71.832623 38.2659091,71.8782864 38.5523346,71.8782864 C38.7128178,71.8782864 38.8775523,71.8544169 39.0449438,71.8066779 C39.2128667,71.7589389 39.368036,71.7075677 39.5115144,71.653083 C39.6544614,71.5980794 39.7766838,71.547227 39.8781815,71.499488 C39.9796792,71.451749 40.0407904,71.4278796 40.0620464,71.4278796 C40.1598243,71.4278796 40.2172157,71.4719862 40.234752,71.5607184 C40.2517568,71.6494507 40.2607906,71.7278048 40.2607906,71.7962999 L40.2607906,71.9498948 L40.1980853,72.0624965 C39.967457,72.1994866 39.7017562,72.3017103 39.4015143,72.3696864 C39.100741,72.4376626 38.8180353,72.4719101 38.5523346,72.4719101 C38.112334,72.4719101 37.7435413,72.4054907 37.4464879,72.2721329 C37.1494344,72.1387751 36.9118979,71.9535271 36.7338783,71.7143134 C36.5553274,71.4756185 36.427791,71.1922981 36.3512692,70.864871 C36.274216,70.537444 36.2359551,70.1788828 36.2359551,69.7902253 C36.2359551,69.4420421 36.284844,69.1213608 36.3826219,68.8281812 C36.4803998,68.5344828 36.6254724,68.2843721 36.8178398,68.0757735 C37.0096758,67.8676939 37.2488065,67.7057965 37.5357633,67.5895625 C37.8221888,67.4733284 38.150595,67.4157303 38.5209819,67.4157303 C38.8913688,67.4157303 39.2001131,67.4805931 39.448809,67.6103185 C39.6964422,67.740044 39.8941235,67.9154328 40.0407904,68.1375228 C40.1874572,68.3590939 40.2921433,68.6133558 40.3553801,68.8997897 C40.4180855,69.1862235 40.4494382,69.4866677 40.4494382,69.8006033 C40.4356218,69.8348508 40.4127715,69.8685795 40.3814188,69.902827" id="Fill-19" fill="#FFFFFF"></path>
                            <path d="M45.4528829,72.3627384 C45.4315757,72.3869988 45.4108013,72.409677 45.3900268,72.4302455 L45.3058637,72.4719101 L45.0432535,72.4719101 C45.0011719,72.4581977 44.9590903,72.4318277 44.9170088,72.393855 C44.8749272,72.3553548 44.8466953,72.3157998 44.8328456,72.2741353 L44.8328456,69.2051971 C44.8328456,68.8033186 44.7034049,68.5053379 44.4439907,68.3102 C44.1851092,68.1166444 43.866035,68.0196029 43.4883663,68.0196029 C43.3477393,68.0196029 43.1900666,68.0470276 43.0153482,68.1024046 C42.8400972,68.1577815 42.6754997,68.2342545 42.5215557,68.331296 C42.3676118,68.4283375 42.2360403,68.5433106 42.127374,68.6746331 C42.0187077,68.806483 41.9643745,68.9520453 41.9643745,69.1118474 L41.9643745,72.2741353 C41.9505249,72.3157998 41.9228256,72.3553548 41.8802114,72.393855 C41.8386625,72.4318277 41.7965809,72.4581977 41.7544994,72.4719101 L41.4913564,72.4719101 L41.407726,72.4302455 C41.3864188,72.409677 41.3656444,72.3869988 41.34487,72.3627384 C41.3235628,72.338478 41.3059845,72.3089436 41.2921348,72.2741353 L41.2921348,67.6657177 C41.313442,67.5966284 41.3512621,67.540724 41.407726,67.4990595 L41.4913564,67.4679429 L41.7124178,67.4679429 L41.7965809,67.4990595 L41.9228256,67.6240532 L41.9436001,68.050192 C42.1396256,67.8286842 42.3724059,67.6678273 42.6424736,67.5665666 C42.911476,67.4663607 43.1937954,67.4157303 43.4883663,67.4157303 C43.7824046,67.4157303 44.0535377,67.4510661 44.3022983,67.5196281 C44.551059,67.5892448 44.7646629,67.6968343 44.94311,67.8423966 C45.1220898,67.9879589 45.2600534,68.1741309 45.3580662,68.3988032 C45.4560789,68.6245302 45.505618,68.8929766 45.505618,69.2051971 L45.505618,72.2741353 C45.4912357,72.3089436 45.47419,72.338478 45.4528829,72.3627384" id="Fill-21" fill="#FFFFFF"></path>
                            <path d="M49.7167962,72.0238013 L49.6544071,72.1439986 C49.4942046,72.2531178 49.3065087,72.3350957 49.0913192,72.3893783 C48.875601,72.4442149 48.6704573,72.4719101 48.475888,72.4719101 C48.2046541,72.4719101 47.9820625,72.4292595 47.808642,72.3461738 C47.6346928,72.2625342 47.4972254,72.1456603 47.3962397,71.9961061 C47.2952539,71.8471057 47.2259915,71.6681945 47.1879236,71.4610342 C47.1498557,71.25332 47.130293,71.0217878 47.130293,70.7669917 L47.130293,67.9592492 L46.5153904,67.9592492 L46.3900836,67.85013 L46.3483146,67.751535 L46.3483146,67.5116943 L46.3795091,67.4347016 C46.4281515,67.3693408 46.4836672,67.3255824 46.546585,67.3039801 L47.130293,67.3039801 C47.1445684,67.0707862 47.1514418,66.8375924 47.1514418,66.6043986 C47.1514418,66.364004 47.1546141,66.1274867 47.1614875,65.8942928 C47.1826364,65.8654898 47.2122447,65.8339172 47.2503127,65.8017908 C47.2883806,65.7685565 47.325391,65.7452925 47.3597579,65.7303371 L47.5997972,65.7303371 L47.7251041,65.8394563 L47.7774475,65.9380513 L47.7774475,67.3039801 L49.404322,67.3039801 C49.4386889,67.3255824 49.4719983,67.356601 49.5031929,67.3964822 C49.5343874,67.4369172 49.5571224,67.4751366 49.5708692,67.5116943 L49.5708692,67.751535 C49.5571224,67.7886466 49.5291002,67.8285277 49.4873312,67.8717323 C49.4455623,67.9154908 49.4074944,67.9448477 49.3725988,67.9592492 L47.7774475,67.9592492 L47.7774475,70.7669917 C47.7774475,70.8910663 47.785907,71.015141 47.8033548,71.1386617 C47.8208026,71.2627363 47.8551695,71.3773946 47.9075129,71.4826365 C47.9598562,71.5884323 48.0307049,71.6737336 48.1211162,71.7396482 C48.2115274,71.805009 48.3262599,71.8376893 48.4653135,71.8376893 C48.5763449,71.8376893 48.6894912,71.8183027 48.8042237,71.7778676 C48.9189562,71.7374326 49.0247004,71.6958898 49.1225138,71.6521313 C49.2197984,71.6083728 49.3049225,71.56683 49.377886,71.5269488 C49.4508495,71.4865138 49.501078,71.4665732 49.5291002,71.4665732 C49.6126381,71.4665732 49.6665677,71.4992536 49.6908888,71.5646144 C49.71521,71.630529 49.7236695,71.6958898 49.7167962,71.7612505 L49.7167962,72.0238013 Z" id="Fill-23" fill="#FFFFFF"></path>
                            <path d="M53.0383046,68.0414114 L52.9356596,68.1042966 L52.8324935,68.1148656 C52.7710107,68.0937277 52.7079647,68.0815734 52.6428346,68.0778743 C52.5777045,68.0741752 52.5104903,68.0731183 52.4422339,68.0731183 C52.2781061,68.0731183 52.1217939,68.1021828 51.9743393,68.1618973 C51.8274058,68.2205549 51.6971456,68.3040495 51.5840798,68.4113243 C51.4710139,68.5191274 51.3819159,68.6464831 51.3167858,68.7923345 C51.2516558,68.9376574 51.2193512,69.0940776 51.2193512,69.2615953 L51.2193512,72.2737425 C51.2052831,72.30862 51.178189,72.3461398 51.1370268,72.3884155 C51.0958646,72.4301628 51.0583496,72.457642 51.0239609,72.4719101 L50.7670878,72.4719101 C50.7259256,72.457642 50.6847634,72.4317481 50.6436012,72.3931715 C50.6024389,72.3551234 50.5748238,72.3154898 50.5617978,72.2737425 L50.5617978,67.6561737 C50.5821183,67.5869471 50.6196333,67.5309318 50.6743426,67.4891845 L50.756667,67.4580061 L51.0135401,67.4580061 L51.0854437,67.4891845 C51.1474476,67.5378016 51.1886098,67.5932885 51.2089304,67.6561737 L51.2089304,67.9790547 C51.3938999,67.7845863 51.6028372,67.6419056 51.8357425,67.5515412 C52.0686477,67.4611768 52.315621,67.4157303 52.5756204,67.4157303 C52.6376242,67.4157303 52.6991071,67.4178441 52.7611109,67.4215433 C52.8225937,67.4252424 52.8840765,67.4336975 52.9460804,67.4474372 C52.9731745,67.4680466 53.0007897,67.4960543 53.0278838,67.5309318 C53.0554989,67.5658093 53.0758195,67.6001583 53.0898876,67.6350358 L53.0898876,67.9373074 L53.0383046,68.0414114 Z" id="Fill-25" fill="#FFFFFF"></path>
                            <path d="M56.5174278,68.8842226 C56.4616307,68.7176551 56.3829832,68.5692492 56.2814855,68.4395237 C56.1799878,68.3097983 56.0540457,68.205499 55.9041904,68.1271448 C55.7538038,68.0487906 55.5773784,68.0088352 55.3749144,68.0088352 C54.9205661,68.0088352 54.5469908,68.1421929 54.2531257,68.4083896 C53.959792,68.6745863 53.7955889,69.0295151 53.7605164,69.4731762 L54.0857342,69.4731762 C54.5119183,69.4731762 54.9359767,69.4695439 55.3589724,69.4627982 C55.7819681,69.4560525 56.2028381,69.4352964 56.622114,69.4010489 C56.6077661,69.2235844 56.573225,69.051309 56.5174278,68.8842226 M57.2353514,69.902827 C57.2039987,69.9370745 57.1742402,69.9676897 57.1460759,69.9951915 C56.5801332,70.0154287 56.0157848,70.0346281 55.4535619,70.0512329 C54.8908076,70.0683567 54.3264591,70.077178 53.7605164,70.077178 C53.7674247,70.3293643 53.8056856,70.5644269 53.8758306,70.7828845 C53.9459756,71.0013422 54.0453477,71.1922981 54.1744783,71.3562711 C54.3036089,71.5197252 54.4694061,71.647894 54.6724016,71.7402585 C54.875397,71.832623 55.1198417,71.8782864 55.4062671,71.8782864 C55.5667504,71.8782864 55.7314849,71.8544169 55.8988764,71.8066779 C56.0667993,71.7589389 56.2219686,71.7075677 56.365447,71.653083 C56.508394,71.5980794 56.6306164,71.547227 56.7321141,71.499488 C56.8336118,71.451749 56.894723,71.4278796 56.915979,71.4278796 C57.0137569,71.4278796 57.0711483,71.4719862 57.0886845,71.5607184 C57.1056894,71.6494507 57.1147232,71.7278048 57.1147232,71.7962999 L57.1147232,71.9498948 L57.0520178,72.0624965 C56.8213896,72.1994866 56.5556888,72.3017103 56.2554469,72.3696864 C55.9546736,72.4376626 55.6719679,72.4719101 55.4062671,72.4719101 C54.9662666,72.4719101 54.5974739,72.4054907 54.3004204,72.2721329 C54.003367,72.1387751 53.7658305,71.9535271 53.5878109,71.7143134 C53.40926,71.4756185 53.2817236,71.1922981 53.2052018,70.864871 C53.1281486,70.537444 53.0898876,70.1788828 53.0898876,69.7902253 C53.0898876,69.4420421 53.1387766,69.1213608 53.2365545,68.8281812 C53.3343324,68.5344828 53.479405,68.2843721 53.6717724,68.0757735 C53.8636083,67.8676939 54.1027391,67.7057965 54.3896959,67.5895625 C54.6761214,67.4733284 55.0045275,67.4157303 55.3749144,67.4157303 C55.7453013,67.4157303 56.0540457,67.4805931 56.3027416,67.6103185 C56.5503747,67.740044 56.7480561,67.9154328 56.894723,68.1375228 C57.0413898,68.3590939 57.1460759,68.6133558 57.2093127,68.8997897 C57.2720181,69.1862235 57.3033708,69.4866677 57.3033708,69.8006033 C57.2895543,69.8348508 57.2667041,69.8685795 57.2353514,69.902827" id="Fill-27" fill="#FFFFFF"></path>
                            <path d="M61.514549,72.0238013 L61.4521599,72.1439986 C61.2919574,72.2531178 61.1042615,72.3350957 60.889072,72.3893783 C60.6733538,72.4442149 60.4682101,72.4719101 60.2736408,72.4719101 C60.0024069,72.4719101 59.7798153,72.4292595 59.6063948,72.3461738 C59.4324456,72.2625342 59.2949782,72.1456603 59.1939925,71.9961061 C59.0930067,71.8471057 59.0237443,71.6681945 58.9856764,71.4610342 C58.9476085,71.25332 58.9280458,71.0217878 58.9280458,70.7669917 L58.9280458,67.9592492 L58.3131433,67.9592492 L58.1878364,67.85013 L58.1460674,67.751535 L58.1460674,67.5116943 L58.177262,67.4347016 C58.2259043,67.3693408 58.28142,67.3255824 58.3443378,67.3039801 L58.9280458,67.3039801 C58.9423213,67.0707862 58.9491946,66.8375924 58.9491946,66.6043986 C58.9491946,66.364004 58.952367,66.1274867 58.9592403,65.8942928 C58.9803892,65.8654898 59.0099975,65.8339172 59.0480655,65.8017908 C59.0861334,65.7685565 59.1231438,65.7452925 59.1575107,65.7303371 L59.39755,65.7303371 L59.5228569,65.8394563 L59.5752003,65.9380513 L59.5752003,67.3039801 L61.2020749,67.3039801 C61.2364417,67.3255824 61.2697511,67.356601 61.3009457,67.3964822 C61.3321402,67.4369172 61.3548752,67.4751366 61.368622,67.5116943 L61.368622,67.751535 C61.3548752,67.7886466 61.326853,67.8285277 61.2850841,67.8717323 C61.2433151,67.9154908 61.2052472,67.9448477 61.1703516,67.9592492 L59.5752003,67.9592492 L59.5752003,70.7669917 C59.5752003,70.8910663 59.5836598,71.015141 59.6011076,71.1386617 C59.6185554,71.2627363 59.6529223,71.3773946 59.7052657,71.4826365 C59.7576091,71.5884323 59.8284577,71.6737336 59.918869,71.7396482 C60.0092803,71.805009 60.1240127,71.8376893 60.2630663,71.8376893 C60.3740978,71.8376893 60.4872441,71.8183027 60.6019765,71.7778676 C60.716709,71.7374326 60.8224532,71.6958898 60.9202666,71.6521313 C61.0175512,71.6083728 61.1026753,71.56683 61.1756388,71.5269488 C61.2486023,71.4865138 61.2988308,71.4665732 61.326853,71.4665732 C61.4103909,71.4665732 61.4643205,71.4992536 61.4886416,71.5646144 C61.5129628,71.630529 61.5214223,71.6958898 61.514549,71.7612505 L61.514549,72.0238013 Z" id="Fill-29" fill="#FFFFFF"></path>
                            <path d="M65.7870908,68.8842226 C65.7312936,68.7176551 65.6526462,68.5692492 65.5516799,68.4395237 C65.4496508,68.3097983 65.32424,68.205499 65.1738533,68.1271448 C65.0234667,68.0487906 64.8470414,68.0088352 64.6445774,68.0088352 C64.190229,68.0088352 63.8166537,68.1421929 63.52332,68.4083896 C63.2299864,68.6745863 63.0652519,69.0295151 63.0307108,69.4731762 L63.3553971,69.4731762 C63.7815812,69.4731762 64.2056397,69.4695439 64.6286353,69.4627982 C65.051631,69.4560525 65.472501,69.4352964 65.8917769,69.4010489 C65.8779604,69.2235844 65.8428879,69.051309 65.7870908,68.8842226 M66.5055457,69.902827 C66.4736616,69.9370745 66.4439031,69.9676897 66.4162702,69.9951915 C65.8497962,70.0154287 65.2859791,70.0346281 64.7232248,70.0512329 C64.1604705,70.0683567 63.5966534,70.077178 63.0307108,70.077178 C63.037619,70.3293643 63.0758799,70.5644269 63.1460249,70.7828845 C63.2156385,71.0013422 63.3150106,71.1922981 63.4446726,71.3562711 C63.5738032,71.5197252 63.7396005,71.647894 63.9420645,71.7402585 C64.1450599,71.832623 64.3895046,71.8782864 64.6759301,71.8782864 C64.8369447,71.8782864 65.0011478,71.8544169 65.1685393,71.8066779 C65.3364622,71.7589389 65.4916315,71.7075677 65.6351099,71.653083 C65.7780569,71.5980794 65.9008107,71.547227 66.001777,71.499488 C66.1032747,71.451749 66.1643859,71.4278796 66.185642,71.4278796 C66.2834198,71.4278796 66.3408112,71.4719862 66.3583475,71.5607184 C66.3753523,71.6494507 66.3843861,71.7278048 66.3843861,71.7962999 L66.3843861,71.9498948 L66.3216808,72.0624965 C66.0910525,72.1994866 65.8253517,72.3017103 65.5251098,72.3696864 C65.2243365,72.4376626 64.9416309,72.4719101 64.6759301,72.4719101 C64.2359295,72.4719101 63.8671369,72.4054907 63.5706148,72.2721329 C63.2735613,72.1387751 63.0354934,71.9535271 62.8574738,71.7143134 C62.6794543,71.4756185 62.5519179,71.1922981 62.4748647,70.864871 C62.3983429,70.537444 62.3595506,70.1788828 62.3595506,69.7902253 C62.3595506,69.4420421 62.4084395,69.1213608 62.5062174,68.8281812 C62.6039953,68.5344828 62.7490679,68.2843721 62.9414353,68.0757735 C63.1332713,67.8676939 63.3729334,67.7057965 63.6593588,67.5895625 C63.9457843,67.4733284 64.2741905,67.4157303 64.6445774,67.4157303 C65.0149643,67.4157303 65.32424,67.4805931 65.5724045,67.6103185 C65.8200377,67.740044 66.0177191,67.9154328 66.1643859,68.1375228 C66.3110527,68.3590939 66.4162702,68.6133558 66.4789756,68.8997897 C66.541681,69.1862235 66.5730337,69.4866677 66.5730337,69.8006033 C66.5592173,69.8348508 66.536367,69.8685795 66.5055457,69.902827" id="Fill-31" fill="#FFFFFF"></path>
                            <path d="M70.7337884,72.3627384 C70.712484,72.3869988 70.6917122,72.409677 70.6704077,72.4302455 L70.5867878,72.4719101 L70.3236782,72.4719101 C70.2816019,72.4581977 70.2395257,72.4318277 70.1974494,72.393855 C70.1559058,72.3553548 70.1276774,72.3157998 70.1138296,72.2741353 L70.1138296,69.2051971 C70.1138296,68.8033186 69.9838725,68.5053379 69.7244911,68.3102 C69.4656423,68.1166444 69.1471412,68.0196029 68.7689876,68.0196029 C68.628911,68.0196029 68.4712582,68.0470276 68.2960293,68.1024046 C68.121333,68.1577815 67.9562237,68.2342545 67.8022992,68.331296 C67.6483747,68.4283375 67.5168198,68.5433106 67.4086999,68.6746331 C67.3000473,68.806483 67.245721,68.9520453 67.245721,69.1118474 L67.245721,72.2741353 C67.2313405,72.3157998 67.2036448,72.3553548 67.1615685,72.393855 C67.1194923,72.4318277 67.0779486,72.4581977 67.0353398,72.4719101 L66.7727627,72.4719101 L66.6886102,72.4302455 C66.6673058,72.409677 66.646534,72.3869988 66.6257622,72.3627384 C66.6044577,72.338478 66.5874142,72.3089436 66.5730337,72.2741353 L66.5730337,67.6657177 C66.5943381,67.5966284 66.6326861,67.540724 66.6886102,67.4990595 L66.7727627,67.4679429 L66.9937962,67.4679429 L67.0779486,67.4990595 L67.2036448,67.6240532 L67.2244166,68.050192 C67.4204173,67.8286842 67.6537008,67.6678273 67.9232018,67.5665666 C68.1927028,67.4663607 68.4749865,67.4157303 68.7689876,67.4157303 C69.0629887,67.4157303 69.3346201,67.4510661 69.5833493,67.5196281 C69.8320785,67.5892448 70.0456554,67.6968343 70.22408,67.8423966 C70.4025045,67.9879589 70.5409833,68.1741309 70.6389837,68.3988032 C70.7369841,68.6245302 70.7865169,68.8929766 70.7865169,69.2051971 L70.7865169,72.2741353 C70.7716038,72.3089436 70.7545602,72.338478 70.7337884,72.3627384" id="Fill-33" fill="#FFFFFF"></path>
                            <path d="M72.2402227,72.4034489 C72.2077488,72.4352913 72.1742757,72.4581117 72.1418018,72.4719101 L71.8555317,72.4719101 L71.7376264,72.3673608 L71.6886657,72.2728949 L71.6886657,67.6355758 C71.7081501,67.5724216 71.7476184,67.5166974 71.806571,67.4678723 L71.8760152,67.4365606 L72.1318098,67.4365606 L72.2007544,67.4678723 C72.2597071,67.5166974 72.2991754,67.5724216 72.3191593,67.6355758 L72.3191593,72.3148208 C72.2991754,72.3429483 72.2726966,72.3721372 72.2402227,72.4034489 M72.279691,66.4839412 L72.2007544,66.515253 L71.826555,66.515253 L71.7476184,66.4839412 L71.6686818,66.4107037 L71.6292135,66.3268519 L71.6292135,65.9293523 C71.6427026,65.8937949 71.6586898,65.864606 71.6786738,65.8401935 C71.6981581,65.8157809 71.7181421,65.7929605 71.7376264,65.7722629 L71.816563,65.7303371 L72.1907624,65.7303371 C72.2302307,65.7441355 72.2701986,65.7706708 72.3091673,65.808351 C72.3486356,65.8470927 72.3751144,65.8874264 72.3881039,65.9293523 L72.3881039,66.3268519 C72.3616252,66.4038045 72.3256541,66.4563445 72.279691,66.4839412" id="Fill-35" fill="#FFFFFF"></path>
                            <path d="M79.9738575,72.3938468 C79.9332173,72.4318236 79.8920562,72.4581963 79.850895,72.4719101 L79.5940285,72.4719101 C79.5591197,72.4581963 79.5221267,72.4302412 79.4809656,72.3885723 C79.4398044,72.3469034 79.41219,72.3094541 79.3986432,72.2741146 L79.3986432,69.2048563 C79.3986432,68.8514618 79.3142368,68.5650539 79.146466,68.3466877 C78.9786952,68.1283215 78.7098451,68.0191384 78.3399156,68.0191384 C78.1888177,68.0191384 78.0345936,68.0502582 77.8777644,68.1130253 C77.7198931,68.175265 77.5776526,68.2601851 77.451043,68.3672584 C77.3239123,68.4748592 77.2197068,68.6003934 77.1379055,68.7422787 C77.0550622,68.8846914 77.013901,69.0387081 77.013901,69.2048563 L77.013901,72.2741146 C77.0003543,72.3094541 76.9727398,72.3469034 76.9320997,72.3885723 C76.8909386,72.4302412 76.8534246,72.4581963 76.8185157,72.4719101 L76.5517497,72.4719101 C76.5173619,72.4581963 76.479848,72.4302412 76.4386868,72.3885723 C76.3975256,72.3469034 76.3699112,72.3094541 76.3563645,72.2741146 L76.3563645,69.2048563 C76.3563645,68.865703 76.2724791,68.5824599 76.1047083,68.3572368 C75.9364164,68.1320137 75.6712135,68.0191384 75.3080574,68.0191384 C75.1501861,68.0191384 74.9928359,68.0502582 74.8354856,68.1130253 C74.6776143,68.175265 74.5353739,68.2601851 74.4087642,68.3672584 C74.2821546,68.4748592 74.1774281,68.6019757 74.0956268,68.7475532 C74.0133044,68.8926032 73.9716222,69.0487298 73.9716222,69.2159329 L73.9716222,72.2741146 C73.9580755,72.3094541 73.9309821,72.3469034 73.8898209,72.3885723 C73.8486598,72.4302412 73.8111458,72.4581963 73.776758,72.4719101 L73.5198915,72.4719101 C73.4787304,72.4581963 73.4375692,72.4318236 73.396408,72.3938468 C73.3557679,72.3558701 73.3281535,72.316311 73.3146067,72.2741146 L73.3146067,67.6652164 C73.3349268,67.6029767 73.376088,67.547594 73.4375692,67.4990682 L73.5198915,67.4674209 L73.7355968,67.4674209 L73.8179192,67.4990682 L73.9309821,67.6235474 L73.9513022,68.0191384 C74.1294935,67.8176507 74.3352993,67.6673262 74.5681986,67.5665824 C74.8010978,67.4658385 75.0475437,67.4157303 75.3080574,67.4157303 C75.6097323,67.4157303 75.8957763,67.4901014 76.1661895,67.6393711 C76.4371237,67.7886407 76.6507449,67.9911833 76.8086162,68.2480537 C76.9800342,67.9911833 77.2009498,67.7886407 77.471363,67.6393711 C77.7422973,67.4901014 78.0314674,67.4157303 78.3399156,67.4157303 C78.9015831,67.4157303 79.3283046,67.5734393 79.6190378,67.8888571 C79.9108131,68.2048024 80.0561798,68.6436446 80.0561798,69.2048563 L80.0561798,72.2741146 C80.0426331,72.316311 80.0150186,72.3558701 79.9738575,72.3938468" id="Fill-37" fill="#FFFFFF"></path>
                            <path d="M81.5098856,72.4034489 C81.4774117,72.4352913 81.4439386,72.4581117 81.4114647,72.4719101 L81.1251946,72.4719101 L81.0072893,72.3673608 L80.9583287,72.2728949 L80.9583287,67.6355758 C80.977813,67.5724216 81.0172813,67.5166974 81.0762339,67.4678723 L81.1456782,67.4365606 L81.4014727,67.4365606 L81.4704173,67.4678723 C81.52937,67.5166974 81.5688383,67.5724216 81.5888222,67.6355758 L81.5888222,72.3148208 C81.5688383,72.3429483 81.5423596,72.3721372 81.5098856,72.4034489 M81.5493539,66.4839412 L81.4704173,66.515253 L81.0962179,66.515253 L81.0172813,66.4839412 L80.9383447,66.4107037 L80.8988764,66.3268519 L80.8988764,65.9293523 C80.9123656,65.8937949 80.9283527,65.864606 80.9483367,65.8401935 C80.967821,65.8157809 80.987805,65.7929605 81.0072893,65.7722629 L81.0862259,65.7303371 L81.4604254,65.7303371 C81.4998937,65.7441355 81.5398616,65.7706708 81.5788303,65.808351 C81.6182986,65.8470927 81.6447773,65.8874264 81.6577669,65.9293523 L81.6577669,66.3268519 C81.6312881,66.4038045 81.595317,66.4563445 81.5493539,66.4839412" id="Fill-39" fill="#FFFFFF"></path>
                            <path d="M86.0118099,68.8842226 C85.9560127,68.7176551 85.8768339,68.5692492 85.7758676,68.4395237 C85.6743699,68.3097983 85.5489591,68.205499 85.3985724,68.1271448 C85.2481858,68.0487906 85.0717605,68.0088352 84.8692965,68.0088352 C84.4149481,68.0088352 84.0413728,68.1421929 83.7475077,68.4083896 C83.4541741,68.6745863 83.289971,69.0295151 83.2554299,69.4731762 L83.5801162,69.4731762 C84.0063003,69.4731762 84.4303588,69.4695439 84.8533544,69.4627982 C85.2758187,69.4560525 85.6972201,69.4352964 86.116496,69.4010489 C86.1026795,69.2235844 86.0670756,69.051309 86.0118099,68.8842226 M86.7297334,69.902827 C86.6983807,69.9370745 86.6680908,69.9676897 86.6409893,69.9951915 C86.0745153,70.0154287 85.5101668,70.0346281 84.9479439,70.0512329 C84.3851896,70.0683567 83.8208411,70.077178 83.2554299,70.077178 C83.2618067,70.3293643 83.3000676,70.5644269 83.3702126,70.7828845 C83.4398262,71.0013422 83.5397297,71.1922981 83.6688603,71.3562711 C83.7979909,71.5197252 83.9637882,71.647894 84.1667836,71.7402585 C84.3692476,71.832623 84.6136923,71.8782864 84.9006492,71.8782864 C85.0611324,71.8782864 85.2258669,71.8544169 85.3932584,71.8066779 C85.5606499,71.7589389 85.7163506,71.7075677 85.859829,71.653083 C86.002776,71.5980794 86.1255298,71.547227 86.2264961,71.499488 C86.3279938,71.451749 86.389105,71.4278796 86.4098297,71.4278796 C86.5081389,71.4278796 86.5655303,71.4719862 86.5830666,71.5607184 C86.6000714,71.6494507 86.6091052,71.7278048 86.6091052,71.7962999 L86.6091052,71.9498948 L86.5463999,72.0624965 C86.3157716,72.1994866 86.0500708,72.3017103 85.7498289,72.3696864 C85.4490556,72.4376626 85.1658185,72.4719101 84.9006492,72.4719101 C84.4601172,72.4719101 84.091856,72.4054907 83.7948025,72.2721329 C83.497749,72.1387751 83.2602125,71.9535271 83.0816615,71.7143134 C82.903642,71.4756185 82.7761056,71.1922981 82.6995838,70.864871 C82.6225306,70.537444 82.5842697,70.1788828 82.5842697,69.7902253 C82.5842697,69.4420421 82.6331586,69.1213608 82.7309365,68.8281812 C82.8287144,68.5344828 82.9732556,68.2843721 83.1661544,68.0757735 C83.3579904,67.8676939 83.5971211,67.7057965 83.8840779,67.5895625 C84.1705034,67.4733284 84.4983782,67.4157303 84.8692965,67.4157303 C85.2396834,67.4157303 85.5489591,67.4805931 85.7971236,67.6103185 C86.0447568,67.740044 86.2424382,67.9154328 86.389105,68.1375228 C86.5357718,68.3590939 86.6409893,68.6133558 86.7036947,68.8997897 C86.7664001,69.1862235 86.7977528,69.4866677 86.7977528,69.8006033 C86.7839364,69.8348508 86.7610861,69.8685795 86.7297334,69.902827" id="Fill-41" fill="#FFFFFF"></path>
                            <path d="M90.9585075,72.3627384 C90.9372031,72.3869988 90.9164313,72.409677 90.8951268,72.4302455 L90.8115069,72.4719101 L90.5483973,72.4719101 C90.506321,72.4581977 90.4642448,72.4318277 90.4221685,72.393855 C90.3806249,72.3553548 90.3523965,72.3157998 90.3385487,72.2741353 L90.3385487,69.2051971 C90.3385487,68.8033186 90.2085916,68.5053379 89.9492102,68.3102 C89.6903615,68.1166444 89.3718603,68.0196029 88.9937067,68.0196029 C88.8536301,68.0196029 88.6959773,68.0470276 88.5207484,68.1024046 C88.3460521,68.1577815 88.1809428,68.2342545 88.0270183,68.331296 C87.8730938,68.4283375 87.7415389,68.5433106 87.633419,68.6746331 C87.5247664,68.806483 87.4704401,68.9520453 87.4704401,69.1118474 L87.4704401,72.2741353 C87.4560596,72.3157998 87.4283639,72.3553548 87.3862876,72.393855 C87.3442114,72.4318277 87.3021351,72.4581977 87.2605915,72.4719101 L86.9974818,72.4719101 L86.9133293,72.4302455 C86.8925575,72.409677 86.8712531,72.3869988 86.8504813,72.3627384 C86.8297095,72.338478 86.8121333,72.3089436 86.7977528,72.2741353 L86.7977528,67.6657177 C86.8190572,67.5966284 86.8574052,67.540724 86.9133293,67.4990595 L86.9974818,67.4679429 L87.2185153,67.4679429 L87.3021351,67.4990595 L87.4283639,67.6240532 L87.4491357,68.050192 C87.6451364,67.8286842 87.8784199,67.6678273 88.1479209,67.5665666 C88.4174219,67.4663607 88.6997056,67.4157303 88.9937067,67.4157303 C89.2877078,67.4157303 89.5593392,67.4510661 89.8080684,67.5196281 C90.0567976,67.5892448 90.2703745,67.6968343 90.4487991,67.8423966 C90.6272236,67.9879589 90.7657024,68.1741309 90.8637028,68.3988032 C90.9617032,68.6245302 91.011236,68.8929766 91.011236,69.2051971 L91.011236,72.2741353 C90.9963229,72.3089436 90.9792793,72.338478 90.9585075,72.3627384" id="Fill-43" fill="#FFFFFF"></path>
                            <path d="M95.2224141,72.0238013 L95.1600251,72.1439986 C94.9998226,72.2531178 94.8126554,72.3350957 94.5964085,72.3893783 C94.381219,72.4442149 94.1760753,72.4719101 93.9815059,72.4719101 C93.7102721,72.4719101 93.4876805,72.4292595 93.31426,72.3461738 C93.1403108,72.2625342 93.0028433,72.1456603 92.9018576,71.9961061 C92.8014006,71.8471057 92.7316095,71.6681945 92.6935415,71.4610342 C92.6554736,71.25332 92.635911,71.0217878 92.635911,70.7669917 L92.635911,67.9592492 L92.0204797,67.9592492 L91.8957015,67.85013 L91.8539326,67.751535 L91.8539326,67.5116943 L91.8851271,67.4347016 C91.9337695,67.3693408 91.9898139,67.3255824 92.052203,67.3039801 L92.635911,67.3039801 C92.6501864,67.0707862 92.6565311,66.8375924 92.6565311,66.6043986 C92.6565311,66.364004 92.6602321,66.1274867 92.6676342,65.8942928 C92.6882543,65.8654898 92.7178627,65.8339172 92.7559306,65.8017908 C92.7939985,65.7685565 92.831009,65.7452925 92.8653759,65.7303371 L93.1054152,65.7303371 L93.2301934,65.8394563 L93.2825368,65.9380513 L93.2825368,67.3039801 L94.9094113,67.3039801 C94.9443069,67.3255824 94.9776163,67.356601 95.0088109,67.3964822 C95.0400054,67.4369172 95.0622117,67.4751366 95.0764871,67.5116943 L95.0764871,67.751535 C95.0622117,67.7886466 95.0352469,67.8285277 94.9929492,67.8717323 C94.9511803,67.9154908 94.9131124,67.9448477 94.8787455,67.9592492 L93.2825368,67.9592492 L93.2825368,70.7669917 C93.2825368,70.8910663 93.291525,71.015141 93.3089728,71.1386617 C93.3258919,71.2627363 93.3607875,71.3773946 93.4131308,71.4826365 C93.4654742,71.5884323 93.5368516,71.6737336 93.6267341,71.7396482 C93.7171454,71.805009 93.8318779,71.8376893 93.9709315,71.8376893 C94.0824916,71.8376893 94.1956379,71.8183027 94.3098417,71.7778676 C94.4245741,71.7374326 94.5303183,71.6958898 94.6281317,71.6521313 C94.7254164,71.6083728 94.8105405,71.56683 94.883504,71.5269488 C94.9564675,71.4865138 95.0072247,71.4665732 95.0352469,71.4665732 C95.1182561,71.4665732 95.1716569,71.4992536 95.1965068,71.5646144 C95.220828,71.630529 95.2292875,71.6958898 95.2224141,71.7612505 L95.2224141,72.0238013 Z" id="Fill-45" fill="#FFFFFF"></path>
                            <path d="M100.316039,69.068782 C100.256367,68.8472337 100.155778,68.6578539 100.013702,68.5006428 C99.871627,68.3439505 99.6869289,68.2225399 99.4584717,68.1374488 C99.2305827,68.0523576 98.9487051,68.0092932 98.6122705,68.0092932 C98.2832239,68.0092932 98.0036195,68.0575461 97.7711841,68.1524954 C97.5398853,68.2484824 97.3512092,68.3813076 97.2051556,68.5520088 C97.0602387,68.72271 96.9511248,68.9255798 96.8806554,69.1611371 C96.8090494,69.3961755 96.774383,69.6504113 96.774383,69.9233257 C96.774383,70.1822312 96.8090494,70.4317973 96.8806554,70.6704677 C96.9511248,70.9096569 97.0630802,71.1171964 97.2165217,71.2946426 C97.3693948,71.4720888 97.5603442,71.6137345 97.7888014,71.7190608 C98.0161221,71.8249059 98.287202,71.8778284 98.6009045,71.8778284 C98.9373391,71.8778284 99.2214899,71.8217928 99.4527887,71.7092026 C99.6846557,71.5966125 99.8699221,71.4466652 100.008019,71.258842 C100.146117,71.0710188 100.247274,70.8525836 100.310356,70.6040551 C100.374006,70.3550078 100.405831,70.0940269 100.405831,69.8211125 C100.405831,69.5414531 100.375711,69.2908492 100.316039,69.068782 M100.971859,70.9413067 C100.87127,71.252097 100.716123,71.5198229 100.506988,71.7450032 C100.297853,71.9701835 100.035866,72.1481486 99.7221636,72.2773419 C99.4078928,72.407054 99.0384968,72.4719101 98.6122705,72.4719101 C98.1866126,72.4719101 97.8149433,72.4086106 97.4966944,72.2820115 C97.1790138,72.1559313 96.9141852,71.9784851 96.7010721,71.7501917 C96.4885273,71.5218983 96.3288345,71.252097 96.2248353,70.9413067 C96.1196995,70.6315541 96.0674157,70.2917082 96.0674157,69.9233257 C96.0674157,69.5341892 96.1162897,69.1865607 96.2134693,68.8794023 C96.3106488,68.5722439 96.4618171,68.3097065 96.6675423,68.0912712 C96.8726992,67.872836 97.1363911,67.7057667 97.4580499,67.5895446 C97.7791403,67.4738414 98.1599024,67.4157303 98.6009045,67.4157303 C99.0492945,67.4157303 99.4323298,67.4738414 99.7500104,67.5895446 C100.067691,67.7057667 100.327973,67.872836 100.529152,68.0912712 C100.730899,68.3097065 100.880362,68.5722439 100.977542,68.8794023 C101.074722,69.1865607 101.123596,69.5341892 101.123596,69.9233257 C101.123596,70.2917082 101.073017,70.6315541 100.971859,70.9413067" id="Fill-47" fill="#FFFFFF"></path>
                            <path d="M111.153633,72.3938468 C111.112993,72.4318236 111.071831,72.4581963 111.03067,72.4719101 L110.773804,72.4719101 C110.738895,72.4581963 110.701902,72.4302412 110.660741,72.3885723 C110.61958,72.3469034 110.591965,72.3094541 110.578419,72.2741146 L110.578419,69.2048563 C110.578419,68.8514618 110.494012,68.5650539 110.326241,68.3466877 C110.15847,68.1283215 109.88962,68.0191384 109.519691,68.0191384 C109.368593,68.0191384 109.214369,68.0502582 109.05754,68.1130253 C108.899668,68.175265 108.757428,68.2601851 108.630818,68.3672584 C108.503688,68.4748592 108.399482,68.6003934 108.317681,68.7422787 C108.234837,68.8846914 108.193676,69.0387081 108.193676,69.2048563 L108.193676,72.2741146 C108.18013,72.3094541 108.152515,72.3469034 108.111875,72.3885723 C108.070714,72.4302412 108.0332,72.4581963 107.998291,72.4719101 L107.731525,72.4719101 C107.697137,72.4581963 107.659623,72.4302412 107.618462,72.3885723 C107.577301,72.3469034 107.549686,72.3094541 107.53614,72.2741146 L107.53614,69.2048563 C107.53614,68.865703 107.452254,68.5824599 107.284484,68.3572368 C107.116192,68.1320137 106.850989,68.0191384 106.487833,68.0191384 C106.329961,68.0191384 106.172611,68.0502582 106.015261,68.1130253 C105.85739,68.175265 105.715149,68.2601851 105.588539,68.3672584 C105.46193,68.4748592 105.357203,68.6019757 105.275402,68.7475532 C105.19308,68.8926032 105.151398,69.0487298 105.151398,69.2159329 L105.151398,72.2741146 C105.137851,72.3094541 105.110757,72.3469034 105.069596,72.3885723 C105.028435,72.4302412 104.990921,72.4581963 104.956533,72.4719101 L104.699667,72.4719101 C104.658506,72.4581963 104.617344,72.4318236 104.576183,72.3938468 C104.535543,72.3558701 104.507929,72.316311 104.494382,72.2741146 L104.494382,67.6652164 C104.514702,67.6029767 104.555863,67.547594 104.617344,67.4990682 L104.699667,67.4674209 L104.915372,67.4674209 L104.997694,67.4990682 L105.110757,67.6235474 L105.131077,68.0191384 C105.309269,67.8176507 105.515075,67.6673262 105.747974,67.5665824 C105.980873,67.4658385 106.227319,67.4157303 106.487833,67.4157303 C106.789508,67.4157303 107.075552,67.4901014 107.345965,67.6393711 C107.616899,67.7886407 107.83052,67.9911833 107.988392,68.2480537 C108.15981,67.9911833 108.380725,67.7886407 108.651138,67.6393711 C108.922073,67.4901014 109.211243,67.4157303 109.519691,67.4157303 C110.081358,67.4157303 110.50808,67.5734393 110.798813,67.8888571 C111.090588,68.2048024 111.235955,68.6436446 111.235955,69.2048563 L111.235955,72.2741146 C111.222408,72.316311 111.194794,72.3558701 111.153633,72.3938468" id="Fill-49" fill="#FFFFFF"></path>
                            <path d="M115.99084,65.2740213 C115.916393,65.3794481 115.820918,65.5086097 115.704985,65.6604021 C115.589051,65.8132986 115.460046,65.9783384 115.317971,66.1560736 C115.176464,66.3343607 115.041776,66.5032644 114.914477,66.6627845 C114.787746,66.8223046 114.67579,66.9619536 114.578611,67.0811797 C114.481431,67.2015098 114.414371,67.2832017 114.376864,67.3268075 L114.399027,67.3047286 C114.346744,67.3704134 114.283094,67.4173311 114.208646,67.4465856 L113.984735,67.4465856 C113.924495,67.4465856 113.872212,67.4261626 113.827316,67.3864206 C113.78242,67.3466786 113.760256,67.297553 113.760256,67.2395959 C113.760256,67.2246926 113.796059,67.1617677 113.867097,67.0491653 C113.938135,66.9365629 114.027358,66.8035375 114.135904,66.651193 C114.244449,66.4994006 114.362088,66.3304969 114.488819,66.1450341 C114.616119,65.9601233 114.73944,65.7862519 114.858783,65.622868 C114.978695,65.4594841 115.082694,65.3176271 115.173054,65.1978491 C115.262278,65.078623 115.321949,64.9963791 115.352069,64.9533252 L115.475391,64.8876404 L115.890251,64.8876404 C116.031758,64.8876404 116.102796,64.9533252 116.102796,65.0835907 C116.102796,65.1051177 116.065856,65.1691465 115.99084,65.2740213 M116.327275,69.6947702 C116.267035,69.4590779 116.167014,69.2576078 116.024938,69.0903601 C115.882863,68.9231124 115.697597,68.7945028 115.469708,68.7039793 C115.241819,68.6134558 114.959941,68.567642 114.623506,68.567642 C114.29446,68.567642 114.014287,68.6189755 113.78242,68.7199865 C113.551121,68.8221014 113.362445,68.9634064 113.216392,69.1450054 C113.070906,69.3266044 112.962361,69.5418737 112.891891,69.7930213 C112.820285,70.0430649 112.785051,70.3135315 112.785051,70.6038691 C112.785051,70.8793035 112.820285,71.1448023 112.891891,71.3987097 C112.962361,71.6531691 113.074316,71.8739582 113.227758,72.0627328 C113.380631,72.2515074 113.57158,72.402196 113.800037,72.5142464 C114.027358,72.6268488 114.29787,72.68315 114.61214,72.68315 C114.948575,72.68315 115.232726,72.622985 115.464025,72.5037589 C115.695323,72.3839809 115.881158,72.2244608 116.019255,72.0240947 C116.157353,71.8248326 116.25851,71.5924521 116.321592,71.3280572 C116.384673,71.0625584 116.417066,70.7849161 116.417066,70.4951305 C116.417066,70.1976172 116.386946,69.9310145 116.327275,69.6947702 M116.983095,71.6868394 C116.881937,72.017471 116.727359,72.3017369 116.518224,72.541845 C116.309089,72.7814012 116.047102,72.9701758 115.7334,73.107617 C115.419129,73.2456102 115.049733,73.3146067 114.623506,73.3146067 C114.197849,73.3146067 113.825611,73.2478181 113.50793,73.1131367 C113.19025,72.9790074 112.924853,72.7902327 112.71174,72.5473648 C112.499195,72.3039448 112.34007,72.017471 112.236071,71.6868394 C112.130935,71.3573118 112.078652,70.9957697 112.078652,70.6038691 C112.078652,70.1898896 112.127526,69.819516 112.224705,69.4933002 C112.321885,69.1665324 112.473053,68.8872342 112.678778,68.6548537 C112.883935,68.4224732 113.147627,68.244738 113.469286,68.1210962 C113.790376,67.9980063 114.171138,67.9361853 114.61214,67.9361853 C115.06053,67.9361853 115.443566,67.9980063 115.761246,68.1210962 C116.078927,68.244738 116.338641,68.4224732 116.540388,68.6548537 C116.742135,68.8872342 116.891598,69.1665324 116.988778,69.4933002 C117.085958,69.819516 117.134831,70.1898896 117.134831,70.6038691 C117.134831,70.9957697 117.084253,71.3573118 116.983095,71.6868394" id="Fill-51" fill="#FFFFFF"></path>
                            <path d="M121.222049,67.9666561 C121.138058,68.1937269 121.029592,68.473444 120.89832,68.8052757 C120.767049,69.1376393 120.624096,69.4997826 120.470019,69.8911738 C120.316498,70.2825651 120.170208,70.6537487 120.031149,71.0031292 C119.89209,71.3525098 119.771943,71.6556253 119.669596,71.9103487 C119.566693,72.1656039 119.501057,72.3246066 119.472133,72.3873568 L119.340305,72.4719101 L119.110023,72.4719101 L118.967071,72.3873568 C118.930916,72.3038671 118.859161,72.128911 118.753476,71.8630201 C118.647236,71.5976611 118.526532,71.2913549 118.391367,70.9456968 C118.255646,70.5989752 118.114918,70.2357683 117.968628,69.8544809 C117.822338,69.4731935 117.687173,69.1200905 117.563133,68.7951719 C117.438536,68.4697215 117.336189,68.1974493 117.255535,67.9772917 C117.175437,67.7566024 117.134831,67.6326972 117.134831,67.6045128 C117.134831,67.5279363 117.165981,67.4768852 117.228279,67.4524233 C117.290577,67.4279613 117.354544,67.4157303 117.42018,67.4157303 L117.694404,67.4258342 L117.837357,67.4997518 L119.241295,71.2445581 C119.731338,69.9996573 120.214151,68.7515658 120.689732,67.4997518 L120.832684,67.4258342 L121.139726,67.4258342 C121.198131,67.4258342 121.247636,67.4423194 121.287685,67.4731628 C121.327734,67.5050697 121.348315,67.5486757 121.348315,67.6045128 C121.348315,67.6188709 121.306041,67.7390536 121.222049,67.9666561" id="Fill-53" fill="#FFFFFF"></path>
                            <path d="M122.80202,72.4034489 C122.769547,72.4352913 122.736073,72.4581117 122.7036,72.4719101 L122.417329,72.4719101 L122.299424,72.3673608 L122.250463,72.2728949 L122.250463,67.6355758 C122.269948,67.5724216 122.309416,67.5166974 122.368369,67.4678723 L122.437813,67.4365606 L122.693608,67.4365606 L122.762552,67.4678723 C122.821505,67.5166974 122.860973,67.5724216 122.880957,67.6355758 L122.880957,72.3148208 C122.860973,72.3429483 122.834494,72.3721372 122.80202,72.4034489 M122.841489,66.4839412 L122.762552,66.515253 L122.388353,66.515253 L122.309416,66.4839412 L122.23048,66.4107037 L122.191011,66.3268519 L122.191011,65.9293523 C122.2045,65.8937949 122.220488,65.864606 122.240472,65.8401935 C122.259956,65.8157809 122.27994,65.7929605 122.299424,65.7722629 L122.378361,65.7303371 L122.75256,65.7303371 C122.792028,65.7441355 122.831996,65.7706708 122.870965,65.808351 C122.910433,65.8470927 122.936912,65.8874264 122.949902,65.9293523 L122.949902,66.3268519 C122.923423,66.4038045 122.887452,66.4563445 122.841489,66.4839412" id="Fill-55" fill="#FFFFFF"></path>
                            <mask id="mask-2" fill="white">
                                <use xlink:href="#path-1"></use>
                            </mask>
                            <g id="Clip-58"></g>
                            <path d="M126.226067,72.4349449 C126.114157,72.5146309 125.987259,72.5723345 125.846372,72.6080558 C125.704986,72.6443267 125.569095,72.6624621 125.4377,72.6624621 C125.075991,72.6624621 124.792219,72.5756319 124.585385,72.4019713 C124.378551,72.2288604 124.223676,72.0068387 124.121757,71.7359063 C124.019839,71.4644244 123.957889,71.1643654 123.934908,70.8362789 C123.911426,70.5070933 123.900435,70.1910972 123.900435,69.8871913 L123.900435,64.5866987 C123.913425,64.5504278 123.929412,64.5202021 123.949396,64.4943728 C123.96888,64.4690931 123.988864,64.4460117 124.008848,64.4240293 L124.087785,64.3806142 L124.334087,64.3806142 C124.366561,64.3949027 124.403032,64.4240293 124.4425,64.4674445 C124.481968,64.5108596 124.507947,64.5504278 124.520937,64.5866987 C124.520937,65.4753349 124.519438,66.3590251 124.515941,67.2372197 C124.512444,68.1154144 124.510945,68.998555 124.510945,69.8871913 C124.510945,70.067996 124.515941,70.2812248 124.525933,70.5268774 C124.535925,70.7730797 124.568898,71.0077412 124.624354,71.2319611 C124.680309,71.4556315 124.770736,71.6452292 124.895636,71.8007543 C125.020536,71.9562793 125.200891,72.0337671 125.4377,72.0337671 C125.536121,72.0337671 125.620054,72.0194786 125.688999,71.990352 C125.757943,71.9617749 125.816896,71.9288014 125.865857,71.8930801 C125.915317,71.8568092 125.958282,71.8243853 125.994253,71.7952587 C126.030225,71.7661321 126.071192,71.7518435 126.117654,71.7518435 C126.163617,71.7518435 126.199588,71.7738259 126.226067,71.8166915 C126.252046,71.8601066 126.270532,71.9112155 126.280024,71.9683696 C126.290016,72.0266228 126.295012,72.0876238 126.295012,72.1530213 L126.295012,72.2937083 L126.226067,72.4349449 Z" id="Fill-57" fill="#FFFFFF" mask="url(#mask-2)"></path>
                        </g>
                    </g>
                </g>
            </g>
        </g>
    </g>
</svg>